P2
#esto es un comentario de prueba
#segundo comentario
# tercer comentario
20 11
255
255 255 200 255 255 255 255 255 255 255 255 255 255 255 255 255 255 255 255 255
255 255 200 255 255 255 255 255 255 255 255 255 255 255 255 255 255 255 255 255
222 255 200 255 255 255 255 255 255 255 255 255 255 255 255 255 255 255 255 255
255 255 255 255 255 000 000 255 255 255 255 255 255 255 255 255 255 255 255 255
255 255 200 255 255 000 000 255 255 255 255 255 255 255 255 255 255 255 255 255
255 255 255 255 255 255 255 255 255 255 255 255 255 255 255 255 255 255 255 255
255 255 255 255 255 255 255 255 255 255 255 255 255 255 255 255 255 255 255 255
255 255 255 255 255 255 255 255 255 255 255 255 255 255 255 255 255 255 255 255
255 255 255 255 255 255 255 255 255 255 255 255 255 255 255 255 255 255 255 255
255 255 255 255 255 255 255 255 255 255 255 255 255 255 255 255 255 255 255 255
255 255 255 255 255 255 255 255 255 255 000 255 255 255 255 255 255 255 255 255