P2
#mapa1
20 10
255
255 255 200 255 255 255 255 255 255 255 255 255 255 255 255 255 255 255 255 255
255 255 200 255 255 255 255 255 255 255 255 255 255 255 255 255 255 255 255 255
222 255 200 255 255 255 255 255 255 255 255 255 255 255 255 255 255 255 255 255
255 255 255 255 255 000 000 255 255 255 255 255 255 255 255 255 255 255 255 255
255 255 200 001 255 000 000 255 255 255 255 255 255 255 255 255 255 255 255 255
255 255 255 255 255 255 255 255 255 255 255 255 255 255 255 255 255 255 255 255
255 255 255 255 255 255 255 255 255 255 255 255 255 255 255 255 255 255 255 255
255 255 255 255 255 255 255 255 255 255 255 255 255 255 255 255 255 255 255 255
255 255 255 255 255 255 255 255 255 255 255 255 255 255 255 255 255 255 255 255
255 255 255 255 255 255 255 255 255 255 255 255 255 255 255 255 255 255 255 255